# xmcd
#
# Track frame offsets:
#	150
#	19998
#	37092
#	50555
#	67574
#	83126
#	97565
#	108475
#	120022
#	132582
#	148455
#	158780
#	172733
#	188604
#	200494
#	221200
#	239547
#	254954
#	269573
#	284788
#
# Disc length: 4013 seconds
#
# Revision: 0
# Processed by: cddbd v1.5.2PL0 Copyright (c) Steve Scherf et al.
# Submitted via: EasyCDDAExtractor 5.0.5.1
#
DISCID=2f0fab14
DTITLE=Various Artist - country Trakks vol 6
DYEAR=1900
DGENRE=
TTITLE0=Kenny Rogers - Through The Years
TTITLE1=David Lee Murphy - Dust On The Bottle
TTITLE2=Clint Black - Life Gets Away
TTITLE3=Lorrie Morgan - Back In Your Arms Again
TTITLE4=George Fox - Time On My Life
TTITLE5=Faith Hill - Let's Go To Vegas
TTITLE6=Doug Stone - Born In The Dark
TTITLE7=Prescott - Brown - Talkin' Love
TTITLE8=Prairie Oyster - Ancient History
TTITLE9=Perfect Stranger - You Have The Right To Remain Silent
TTITLE10=Ken Mellons - Rub-A-Dubbin
TTITLE11=Joel Feeney - Life Is But A Dream
TTITLE12=George Ducas - Hello Cruel World
TTITLE13=Rhonda Vincent - What More Do You Want From Me
TTITLE14=Reba McEntire - On My Own
TTITLE15=Rankin Family - You Feel The Same Way Too
TTITLE16=Tracy Byrd - Walking To Jerusalem
TTITLE17=Helen Darling - Jenny Come Back
TTITLE18=Mark Chesnutt - Down In Tennessee
TTITLE19=Holly Cole - Heart Of Saturday Night
EXTD=
EXTT0=
EXTT1=
EXTT2=
EXTT3=
EXTT4=
EXTT5=
EXTT6=
EXTT7=
EXTT8=
EXTT9=
EXTT10=
EXTT11=
EXTT12=
EXTT13=
EXTT14=
EXTT15=
EXTT16=
EXTT17=
EXTT18=
EXTT19=
PLAYORDER=
